<svg width="24" height="24" viewBox="0 0 24 24" fill="none" xmlns="http://www.w3.org/2000/svg">
<path d="M9.27202 15.0696C8.92069 15.0696 8.60748 15.005 8.33239 14.8757C8.05895 14.7464 7.84186 14.5683 7.68111 14.3413C7.52036 14.1142 7.43667 13.854 7.43004 13.5607H8.47408C8.48568 13.7579 8.56854 13.9179 8.72266 14.0405C8.87678 14.1631 9.0599 14.2244 9.27202 14.2244C9.44105 14.2244 9.5902 14.1871 9.71946 14.1126C9.85038 14.0363 9.9523 13.9311 10.0252 13.7969C10.0998 13.661 10.1371 13.5052 10.1371 13.3295C10.1371 13.1506 10.099 12.9931 10.0227 12.8572C9.94815 12.7214 9.84458 12.6153 9.712 12.5391C9.57943 12.4628 9.42779 12.4239 9.2571 12.4222C9.10795 12.4222 8.96295 12.4529 8.82209 12.5142C8.68288 12.5755 8.57434 12.6592 8.49645 12.7653L7.53942 12.5938L7.78054 9.90909H10.8928V10.7891H8.66797L8.53622 12.0643H8.56605C8.65554 11.9383 8.7906 11.8339 8.97124 11.7511C9.15187 11.6682 9.35405 11.6268 9.57777 11.6268C9.88435 11.6268 10.1578 11.6989 10.3981 11.843C10.6384 11.9872 10.8281 12.1853 10.9673 12.4371C11.1065 12.6874 11.1753 12.9757 11.1737 13.3022C11.1753 13.6452 11.0958 13.9502 10.935 14.217C10.7759 14.4821 10.553 14.6909 10.2663 14.8434C9.9813 14.9942 9.64986 15.0696 9.27202 15.0696ZM15.3299 11.5547C15.2951 11.4337 15.2462 11.3268 15.1832 11.234C15.1203 11.1396 15.0432 11.06 14.9521 10.9954C14.8626 10.9291 14.7598 10.8786 14.6438 10.8438C14.5295 10.8089 14.4027 10.7915 14.2635 10.7915C14.0033 10.7915 13.7746 10.8562 13.5774 10.9854C13.3819 11.1147 13.2294 11.3028 13.12 11.5497C13.0107 11.795 12.956 12.0949 12.956 12.4496C12.956 12.8042 13.0098 13.1058 13.1175 13.3544C13.2253 13.603 13.3777 13.7927 13.5749 13.9237C13.7721 14.0529 14.005 14.1175 14.2734 14.1175C14.517 14.1175 14.725 14.0745 14.8974 13.9883C15.0714 13.9004 15.204 13.777 15.2951 13.6179C15.3879 13.4588 15.4343 13.2707 15.4343 13.0536L15.6531 13.0859H14.3406V12.2756H16.4709V12.9169C16.4709 13.3643 16.3764 13.7488 16.1875 14.0703C15.9986 14.3902 15.7384 14.6371 15.407 14.8111C15.0755 14.9834 14.696 15.0696 14.2685 15.0696C13.7912 15.0696 13.3719 14.9644 13.0107 14.7539C12.6494 14.5418 12.3677 14.241 12.1655 13.8516C11.965 13.4605 11.8647 12.9964 11.8647 12.4595C11.8647 12.0469 11.9244 11.679 12.0437 11.3558C12.1647 11.031 12.3337 10.7559 12.5508 10.5305C12.7679 10.3052 13.0206 10.1336 13.3089 10.016C13.5973 9.89832 13.9097 9.83949 14.2461 9.83949C14.5344 9.83949 14.8029 9.88175 15.0515 9.96626C15.3001 10.0491 15.5205 10.1668 15.7127 10.3192C15.9066 10.4717 16.0649 10.6532 16.1875 10.8636C16.3101 11.0724 16.3888 11.3028 16.4237 11.5547H15.3299Z" fill="#000028"/>
</svg>
